DBRep_DrawableShape

CASCADE Topology V1, (c) Matra-Datavision
Locations 0
Curve2ds 0
Curves 24
1 -1 -2 0 0 0 1 
1 -1 -2 4 -0 1 0 
1 -1 2 0 0 0 1 
1 -1 -2 0 -0 1 0 
1 -1 -2 0 1 0 -0 
1 2 -2 0 0 0 1 
1 -1 -2 4 1 0 -0 
1 -1 2 4 1 0 -0 
1 2 -2 4 -0 1 0 
1 -1 2 0 1 0 -0 
1 2 2 0 0 0 1 
1 2 -2 0 -0 1 0 
1 0 -0.5 0 1 0 -0 
1 0.5 -0.5 0 -0 1 0 
1 0 0.5 0 1 0 -0 
1 0 -0.5 0 -0 1 0 
1 0.5 -0.5 0 0 0 1 
1 0 -0.5 1.25 1 0 -0 
1 0 -0.5 0 0 0 1 
1 0.5 -0.5 1.25 -0 1 0 
1 0.5 0.5 0 0 0 1 
1 0 0.5 1.25 1 0 -0 
1 0 0.5 0 0 0 1 
1 0 -0.5 1.25 -0 1 0 
Polygon3D 0
PolygonOnTriangulations 0
Surfaces 11
1 -1 -2 0 1 0 -0 0 0 1 0 -1 0 
1 -1 -2 0 -0 1 0 0 0 1 1 0 -0 
1 -1 -2 4 0 0 1 1 0 -0 -0 1 0 
1 -1 2 0 -0 1 0 0 0 1 1 0 -0 
1 -1 -2 0 0 0 1 1 0 -0 -0 1 0 
1 2 -2 0 1 0 -0 0 0 1 0 -1 0 
1 0 -0.5 0 -0 1 0 0 0 1 1 0 -0 
1 0.5 -0.5 0 1 0 -0 0 0 1 0 -1 0 
1 0 0.5 0 -0 1 0 0 0 1 1 0 -0 
1 0 -0.5 0 1 0 -0 0 0 1 0 -1 0 
1 0 -0.5 1.25 0 0 1 1 0 -0 -0 1 0 
Triangulations 0

TShapes 66
Ve
1e-07
-1 -2 4
0 0

0101101
*
Ve
1e-07
-1 -2 0
0 0

0101101
*
Ed
 1e-07 1 1 0
1  1 0 0 4
0

0101000
-66 0 +65 0 *
Ve
1e-07
-1 2 4
0 0

0101101
*
Ed
 1e-07 1 1 0
1  2 0 0 4
0

0101000
-63 0 +66 0 *
Ve
1e-07
-1 2 0
0 0

0101101
*
Ed
 1e-07 1 1 0
1  3 0 0 4
0

0101000
-63 0 +61 0 *
Ed
 1e-07 1 1 0
1  4 0 0 4
0

0101000
-61 0 +65 0 *
Wi

0101100
-64 0 -62 0 +60 0 +59 0 *
Fa
0  1e-07 1 0

0111000
+58 0 *
Ve
1e-07
2 -2 0
0 0

0101101
*
Ed
 1e-07 1 1 0
1  5 0 0 3
0

0101000
-56 0 +65 0 *
Ve
1e-07
2 -2 4
0 0

0101101
*
Ed
 1e-07 1 1 0
1  6 0 0 4
0

0101000
-54 0 +56 0 *
Ed
 1e-07 1 1 0
1  7 0 0 3
0

0101000
-54 0 +66 0 *
Wi

0101100
-55 0 -53 0 +52 0 +64 0 *
Fa
0  1e-07 2 0

0111000
+51 0 *
Ve
1e-07
2 2 4
0 0

0101101
*
Ed
 1e-07 1 1 0
1  8 0 0 3
0

0101000
-49 0 +63 0 *
Ed
 1e-07 1 1 0
1  9 0 0 4
0

0101000
-49 0 +54 0 *
Wi

0101100
-62 0 -48 0 +47 0 +52 0 *
Fa
0  1e-07 3 0

0111000
+46 0 *
Ve
1e-07
2 2 0
0 0

0101101
*
Ed
 1e-07 1 1 0
1  10 0 0 3
0

0101000
-44 0 +61 0 *
Ed
 1e-07 1 1 0
1  11 0 0 4
0

0101000
-49 0 +44 0 *
Wi

0101100
-43 0 -42 0 +48 0 +60 0 *
Fa
0  1e-07 4 0

0111000
+41 0 *
Ed
 1e-07 1 1 0
1  12 0 0 4
0

0101000
-44 0 +56 0 *
Wi

0101100
-59 0 -43 0 +55 0 +39 0 *
Ve
1e-07
0 -0.5 0
0 0

0101101
*
Ve
1e-07
0.5 -0.5 0
0 0

0101101
*
Ed
 1e-07 1 1 0
1  13 0 0 0.5
0

0101000
+37 0 -36 0 *
Ve
1e-07
0.5 0.5 0
0 0

0101101
*
Ed
 1e-07 1 1 0
1  14 0 0 1
0

0101000
+36 0 -34 0 *
Ve
1e-07
0 0.5 0
0 0

0101101
*
Ed
 1e-07 1 1 0
1  15 0 0 0.5
0

0101000
+32 0 -34 0 *
Ed
 1e-07 1 1 0
1  16 0 0 1
0

0101000
+37 0 -32 0 *
Wi

0101100
-35 0 -33 0 +31 0 +30 0 *
Fa
0  1e-07 5 0

0111000
+38 0 +29 0 *
Wi

0101100
-53 0 -47 0 +42 0 +39 0 *
Fa
0  1e-07 6 0

0111000
+27 0 *
Ve
1e-07
0.5 -0.5 1.25
0 0

0101101
*
Ed
 1e-07 1 1 0
1  17 0 0 1.25
0

0101000
+36 0 -25 0 *
Ve
1e-07
0 -0.5 1.25
0 0

0101101
*
Ed
 1e-07 1 1 0
1  18 0 0 0.5
0

0101000
-25 0 +23 0 *
Ed
 1e-07 1 1 0
1  19 0 0 1.25
0

0101000
+37 0 -23 0 *
Wi

0101100
-35 0 -24 0 +22 0 +21 0 *
Fa
0  1e-07 7 0

0111000
+20 0 *
Ve
1e-07
0.5 0.5 1.25
0 0

0101101
*
Ed
 1e-07 1 1 0
1  20 0 0 1
0

0101000
-18 0 +25 0 *
Ed
 1e-07 1 1 0
1  21 0 0 1.25
0

0101000
+34 0 -18 0 *
Wi

0101100
-24 0 -17 0 +16 0 +33 0 *
Fa
0  1e-07 8 0

0111000
+15 0 *
Ve
1e-07
0 0.5 1.25
0 0

0101101
*
Ed
 1e-07 1 1 0
1  22 0 0 0.5
0

0101000
-18 0 +13 0 *
Ed
 1e-07 1 1 0
1  23 0 0 1.25
0

0101000
+32 0 -13 0 *
Wi

0101100
-31 0 -16 0 +12 0 +11 0 *
Fa
0  1e-07 9 0

0111000
+10 0 *
Ed
 1e-07 1 1 0
1  24 0 0 1
0

0101000
-13 0 +23 0 *
Wi

0101100
-21 0 -8 0 +11 0 +30 0 *
Fa
0  1e-07 10 0

0111000
+7 0 *
Wi

0101100
-8 0 -12 0 +17 0 +22 0 *
Fa
0  1e-07 11 0

0111000
+5 0 *
Sh

0101100
-57 0 -50 0 +45 0 +40 0 -28 0 +26 0 +19 0 -14 0 -9 0 +6 0 
-4 0 *
So

0100000
+3 0 *
Co

1100000
+2 0 *

+1 0 
##EGADS HEADER FILE-REV 1 ##
0
  1  1  11  12  24  16  5
3 10 3
capsIntent
#CFD
3 7 42
capsAIM
#su2AIM;egadsTessAIM;pointwiseAIM;tetgenAIM
2 14 1
capsMeshLength
 1.500000000000e-01
1 5 1
_body
5
1 5 1
_brch
7
    2 0 13
1 5 2
_body
1 1 
1 5 2
_brch
5 1 
1 5 2
_hist
1 5 
1 9 4
__trace__
1 1 5 1 
1 7 3
_faceID
1 1 1 
3 3 5
tag
#inlet
3 7 42
capsAIM
#pointwiseAIM;su2AIM;tetgenAIM;egadsTessAIM
3 9 5
capsGroup
#inlet
3 8 5
capsMesh
#inlet
2 14 1
capsMeshLength
 5.000000000000e-01
3 5 5
_name
#inlet
3 6 5
_color
#green
3 7 5
PW:Name
#inlet
    2 1 13
1 5 2
_body
1 3 
1 5 2
_brch
5 1 
1 5 2
_hist
1 5 
1 9 4
__trace__
1 3 5 2 
1 7 3
_faceID
1 3 1 
3 3 7
tag
#channel
3 7 42
capsAIM
#pointwiseAIM;su2AIM;tetgenAIM;egadsTessAIM
3 9 7
capsGroup
#channel
3 8 7
capsMesh
#channel
2 14 1
capsMeshLength
 5.000000000000e-01
3 5 7
_name
#channel
3 6 4
_color
#blue
3 7 7
PW:Name
#channel
    2 2 13
1 5 2
_body
1 6 
1 5 2
_brch
5 1 
1 5 2
_hist
1 5 
1 9 4
__trace__
1 6 5 3 
1 7 3
_faceID
1 6 1 
3 3 7
tag
#channel
3 7 42
capsAIM
#pointwiseAIM;su2AIM;tetgenAIM;egadsTessAIM
3 9 7
capsGroup
#channel
3 8 7
capsMesh
#channel
2 14 1
capsMeshLength
 5.000000000000e-01
3 5 7
_name
#channel
3 6 4
_color
#blue
3 7 7
PW:Name
#channel
    2 3 13
1 5 2
_body
1 4 
1 5 2
_brch
5 1 
1 5 2
_hist
1 5 
1 9 4
__trace__
1 4 5 4 
1 7 3
_faceID
1 4 1 
3 3 7
tag
#channel
3 7 42
capsAIM
#pointwiseAIM;su2AIM;tetgenAIM;egadsTessAIM
3 9 7
capsGroup
#channel
3 8 7
capsMesh
#channel
2 14 1
capsMeshLength
 5.000000000000e-01
3 5 7
_name
#channel
3 6 4
_color
#blue
3 7 7
PW:Name
#channel
    2 4 14
1 5 2
_body
1 5 
1 5 2
_brch
5 1 
1 5 2
_hist
1 5 
1 9 4
__trace__
1 5 5 5 
1 7 3
_faceID
1 5 1 
1 11 1
__trimmed__
1
3 3 3
tag
#sym
3 7 42
capsAIM
#pointwiseAIM;su2AIM;tetgenAIM;egadsTessAIM
3 9 3
capsGroup
#sym
3 8 3
capsMesh
#sym
2 14 1
capsMeshLength
 5.000000000000e-01
3 5 3
_name
#sym
3 6 4
_color
#blue
3 7 3
PW:Name
#sym
    2 5 13
1 5 2
_body
1 2 
1 5 2
_brch
5 1 
1 5 2
_hist
1 5 
1 9 4
__trace__
1 2 5 6 
1 7 3
_faceID
1 2 1 
3 3 6
tag
#outlet
3 7 42
capsAIM
#pointwiseAIM;su2AIM;tetgenAIM;egadsTessAIM
3 9 6
capsGroup
#outlet
3 8 6
capsMesh
#outlet
2 14 1
capsMeshLength
 5.000000000000e-01
3 5 6
_name
#outlet
3 6 3
_color
#red
3 7 6
PW:Name
#outlet
    2 6 16
1 5 2
_body
2 3 
1 5 2
_brch
6 2 
1 5 2
_hist
2 5 
1 9 4
__trace__
2 3 5 7 
1 7 3
_faceID
2 3 1 
1 11 1
__trimmed__
1
3 3 4
tag
#body
3 7 42
capsAIM
#pointwiseAIM;su2AIM;tetgenAIM;egadsTessAIM
3 9 4
capsGroup
#body
3 8 4
capsMesh
#body
2 14 1
capsMeshLength
 2.000000000000e-01
3 5 4
_name
#body
3 6 6
_color
#yellow
3 7 4
PW:Name
#body
2 23 1
PW:DomainTRexGrowthRate
 2.000000000000e+00
2 14 1
PW:WallSpacing
 3.000000000000e-02
    2 7 16
1 5 2
_body
2 2 
1 5 2
_brch
6 2 
1 5 2
_hist
2 5 
1 9 4
__trace__
2 2 5 8 
1 7 3
_faceID
2 2 1 
1 11 1
__trimmed__
1
3 3 4
tag
#body
3 7 42
capsAIM
#pointwiseAIM;su2AIM;tetgenAIM;egadsTessAIM
3 9 4
capsGroup
#body
3 8 4
capsMesh
#body
2 14 1
capsMeshLength
 2.000000000000e-01
3 5 4
_name
#body
3 6 6
_color
#yellow
3 7 4
PW:Name
#body
2 23 1
PW:DomainTRexGrowthRate
 2.000000000000e+00
2 14 1
PW:WallSpacing
 3.000000000000e-02
    2 8 16
1 5 2
_body
2 4 
1 5 2
_brch
6 2 
1 5 2
_hist
2 5 
1 9 4
__trace__
2 4 5 9 
1 7 3
_faceID
2 4 1 
1 11 1
__trimmed__
1
3 3 4
tag
#body
3 7 42
capsAIM
#pointwiseAIM;su2AIM;tetgenAIM;egadsTessAIM
3 9 4
capsGroup
#body
3 8 4
capsMesh
#body
2 14 1
capsMeshLength
 2.000000000000e-01
3 5 4
_name
#body
3 6 6
_color
#yellow
3 7 4
PW:Name
#body
2 23 1
PW:DomainTRexGrowthRate
 2.000000000000e+00
2 14 1
PW:WallSpacing
 3.000000000000e-02
    2 9 16
1 5 2
_body
2 1 
1 5 2
_brch
6 2 
1 5 2
_hist
2 5 
1 9 4
__trace__
2 1 5 10 
1 7 3
_faceID
2 1 1 
1 11 1
__trimmed__
1
3 3 4
tag
#body
3 7 42
capsAIM
#pointwiseAIM;su2AIM;tetgenAIM;egadsTessAIM
3 9 4
capsGroup
#body
3 8 4
capsMesh
#body
2 14 1
capsMeshLength
 2.000000000000e-01
3 5 4
_name
#body
3 6 6
_color
#yellow
3 7 4
PW:Name
#body
2 23 1
PW:DomainTRexGrowthRate
 2.000000000000e+00
2 14 1
PW:WallSpacing
 3.000000000000e-02
    2 10 16
1 5 2
_body
2 6 
1 5 2
_brch
6 2 
1 5 2
_hist
2 5 
1 9 4
__trace__
2 6 5 11 
1 7 3
_faceID
2 6 1 
1 11 1
__trimmed__
1
3 3 4
tag
#body
3 7 42
capsAIM
#pointwiseAIM;su2AIM;tetgenAIM;egadsTessAIM
3 9 4
capsGroup
#body
3 8 4
capsMesh
#body
2 14 1
capsMeshLength
 2.000000000000e-01
3 5 4
_name
#body
3 6 6
_color
#yellow
3 7 4
PW:Name
#body
2 23 1
PW:DomainTRexGrowthRate
 2.000000000000e+00
2 14 1
PW:WallSpacing
 3.000000000000e-02
    4 0 4
1 9 4
__trace__
1 1 5 1 
1 5 2
_body
1 10003 
1 7 5
_edgeID
1 1 1 3 1 
1 6 1
_nface
2
    4 1 4
1 9 4
__trace__
1 2 5 2 
1 5 2
_body
1 10006 
1 7 5
_edgeID
1 1 1 6 1 
1 6 1
_nface
2
    4 2 4
1 9 4
__trace__
1 3 5 3 
1 5 2
_body
1 40001 
1 7 5
_edgeID
1 1 1 4 1 
1 6 1
_nface
2
    4 3 4
1 9 4
__trace__
1 4 5 4 
1 5 2
_body
1 50001 
1 7 5
_edgeID
1 1 1 5 1 
1 6 1
_nface
2
    4 4 4
1 9 4
__trace__
1 9 5 5 
1 5 2
_body
1 30005 
1 7 5
_edgeID
1 3 1 5 1 
1 6 1
_nface
2
    4 5 4
1 9 4
__trace__
1 5 5 6 
1 5 2
_body
1 30002 
1 7 5
_edgeID
1 2 1 3 1 
1 6 1
_nface
2
    4 6 4
1 9 4
__trace__
1 10 5 7 
1 5 2
_body
1 60003 
1 7 5
_edgeID
1 3 1 6 1 
1 6 1
_nface
2
    4 7 4
1 9 4
__trace__
1 12 5 8 
1 5 2
_body
1 40006 
1 7 5
_edgeID
1 4 1 6 1 
1 6 1
_nface
2
    4 8 4
1 9 4
__trace__
1 6 5 9 
1 5 2
_body
1 60002 
1 7 5
_edgeID
1 2 1 6 1 
1 6 1
_nface
2
    4 9 4
1 9 4
__trace__
1 11 5 10 
1 5 2
_body
1 50004 
1 7 5
_edgeID
1 4 1 5 1 
1 6 1
_nface
2
    4 10 4
1 9 4
__trace__
1 7 5 11 
1 5 2
_body
1 20004 
1 7 5
_edgeID
1 2 1 4 1 
1 6 1
_nface
2
    4 11 4
1 9 4
__trace__
1 8 5 12 
1 5 2
_body
1 20005 
1 7 5
_edgeID
1 2 1 5 1 
1 6 1
_nface
2
    4 12 4
1 5 2
_body
5 0 
1 7 5
_edgeID
1 5 2 3 1 
1 6 1
_nface
2
1 9 2
__trace__
5 13 
    4 13 4
1 5 2
_body
5 0 
1 7 5
_edgeID
1 5 2 2 1 
1 6 1
_nface
2
1 9 2
__trace__
5 14 
    4 14 4
1 5 2
_body
5 0 
1 7 5
_edgeID
1 5 2 4 1 
1 6 1
_nface
2
1 9 2
__trace__
5 15 
    4 15 4
1 5 2
_body
5 0 
1 7 5
_edgeID
1 5 2 1 1 
1 6 1
_nface
2
1 9 2
__trace__
5 16 
    4 16 4
1 5 2
_body
2 20003 
1 7 5
_edgeID
2 2 2 3 1 
1 9 4
__trace__
2 5 5 17 
1 6 1
_nface
2
    4 17 4
1 9 4
__trace__
2 10 5 18 
1 5 2
_body
2 30006 
1 7 5
_edgeID
2 3 2 6 1 
1 6 1
_nface
2
    4 18 4
1 5 2
_body
2 30001 
1 7 5
_edgeID
2 1 2 3 1 
1 9 4
__trace__
2 1 5 19 
1 6 1
_nface
2
    4 19 4
1 9 4
__trace__
2 6 5 20 
1 5 2
_body
2 20006 
1 7 5
_edgeID
2 2 2 6 1 
1 6 1
_nface
2
    4 20 4
1 5 2
_body
2 40002 
1 7 5
_edgeID
2 2 2 4 1 
1 9 4
__trace__
2 7 5 21 
1 6 1
_nface
2
    4 21 4
1 9 4
__trace__
2 12 5 22 
1 5 2
_body
2 60004 
1 7 5
_edgeID
2 4 2 6 1 
1 6 1
_nface
2
    4 22 4
1 5 2
_body
2 10004 
1 7 5
_edgeID
2 1 2 4 1 
1 9 4
__trace__
2 3 5 23 
1 6 1
_nface
2
    4 23 4
1 9 4
__trace__
2 2 5 24 
1 5 2
_body
2 60001 
1 7 5
_edgeID
2 1 2 6 1 
1 6 1
_nface
2
    5 0 3
1 9 4
__trace__
1 1 5 1 
1 7 1
_nodeID
1
1 6 1
_nedge
3
    5 1 3
1 9 4
__trace__
1 2 5 2 
1 7 1
_nodeID
2
1 6 1
_nedge
3
    5 2 3
1 9 4
__trace__
1 3 5 3 
1 7 1
_nodeID
3
1 6 1
_nedge
3
    5 3 3
1 9 4
__trace__
1 4 5 4 
1 7 1
_nodeID
4
1 6 1
_nedge
3
    5 4 3
1 9 4
__trace__
1 6 5 5 
1 7 1
_nodeID
5
1 6 1
_nedge
3
    5 5 3
1 9 4
__trace__
1 5 5 6 
1 7 1
_nodeID
6
1 6 1
_nedge
3
    5 6 3
1 9 4
__trace__
1 7 5 7 
1 7 1
_nodeID
7
1 6 1
_nedge
3
    5 7 3
1 9 4
__trace__
1 8 5 8 
1 7 1
_nodeID
8
1 6 1
_nedge
3
    5 8 3
1 9 4
__trace__
2 2 5 9 
1 7 1
_nodeID
9
1 6 1
_nedge
3
    5 9 3
1 9 4
__trace__
2 6 5 10 
1 7 1
_nodeID
10
1 6 1
_nedge
3
    5 10 3
1 9 4
__trace__
2 8 5 11 
1 7 1
_nodeID
11
1 6 1
_nedge
3
    5 11 3
1 9 4
__trace__
2 4 5 12 
1 7 1
_nodeID
12
1 6 1
_nedge
3
    5 12 3
1 9 4
__trace__
2 5 5 13 
1 7 1
_nodeID
13
1 6 1
_nedge
3
    5 13 3
1 9 4
__trace__
2 1 5 14 
1 7 1
_nodeID
14
1 6 1
_nedge
3
    5 14 3
1 9 4
__trace__
2 7 5 15 
1 7 1
_nodeID
15
1 6 1
_nedge
3
    5 15 3
1 9 4
__trace__
2 3 5 16 
1 7 1
_nodeID
16
1 6 1
_nedge
3
    0 0 0
