DBRep_DrawableShape

CASCADE Topology V1, (c) Matra-Datavision
Locations 2
1
              1               0               0               0 
              0               1               0             0.1 
              0               0               1               0 
2  1 -1 0
Curve2ds 8
1 0 0 1 0 
1 0 0 1 0 
1 0 -0.10000000000000001 1 0 
1 0 -0.10000000000000001 1 0 
1 3.1415926535897931 0 0 -1 
1 0 0 0 -1 
1 3.1415926535897931 0 0 -1 
1 0 0 0 -1 
Curves 30
1 -3 -0.050000000000000003 -2 0 0 1 
1 -3 -0.050000000000000003 2 -0 1 0 
1 -3 0.050000000000000003 -2 0 0 1 
1 -3 -0.050000000000000003 -2 -0 1 0 
1 -3 -0.050000000000000003 -2 1 0 -0 
1 8 -0.050000000000000003 -2 0 0 1 
1 -3 -0.050000000000000003 2 1 0 -0 
1 0 -0.050000000000000003 0.125 0.99654575824487956 0 0.083045479853739973 
1 1.5 -0.050000000000000003 0.25 1 0 0 
2 3.5 -0.050000000000000003 0 -0 1 0 0 0 1 1 0 -0 0.25
1 3.5 -0.050000000000000003 -0.25 -1 0 0 
1 1.5 -0.050000000000000003 -0.25 -0.99654575824487956 0 0.083045479853739973 
2 0 -0.050000000000000003 0 0 1 0 0 0 -1 -1 0 0 0.125
1 -3 0.050000000000000003 2 1 0 -0 
1 8 -0.050000000000000003 2 -0 1 0 
1 -3 0.050000000000000003 -2 1 0 -0 
1 8 0.050000000000000003 -2 0 0 1 
1 0 -0.050000000000000003 0.125 0.99654575824487956 0 0.083045479853739973 
1 1.5 -0.050000000000000003 0.25 1 0 0 
2 3.5 -0.050000000000000003 0 -0 1 0 0 0 1 1 0 -0 0.25
1 3.5 -0.050000000000000003 -0.25 -1 0 0 
1 1.5 -0.050000000000000003 -0.25 -0.99654575824487956 0 0.083045479853739973 
2 0 -0.050000000000000003 0 0 1 0 0 0 -1 -1 0 0 0.125
1 8 -0.050000000000000003 -2 -0 1 0 
1 0 -0.050000000000000003 0.125 0 1 0 
1 1.5 -0.050000000000000003 0.25 0 1 0 
1 3.5 -0.050000000000000003 0.25 0 1 0 
1 3.5 -0.050000000000000003 -0.25 0 1 0 
1 1.5 -0.050000000000000003 -0.25 0 1 0 
1 0 -0.050000000000000003 -0.125 0 1 0 
Polygon3D 0
PolygonOnTriangulations 0
Surfaces 12
1 -3 -0.050000000000000003 -2 1 0 -0 0 0 1 0 -1 0 
1 -3 -0.050000000000000003 -2 -0 1 0 0 0 1 1 0 -0 
2 3.5 -0.050000000000000003 0 0 -1 -0 0 0 1 1 0 -0 0.25
2 0 -0.050000000000000003 0 -0 -1 -0 0 0 -1 -1 0 0 0.125
1 -3 -0.050000000000000003 2 0 0 1 1 0 -0 -0 1 0 
1 -3 0.050000000000000003 -2 -0 1 0 0 0 1 1 0 -0 
1 -3 -0.050000000000000003 -2 0 0 1 1 0 -0 -0 1 0 
1 8 -0.050000000000000003 -2 1 0 -0 0 0 1 0 -1 0 
1 0 -0.050000000000000003 0.125 0.083045479853739987 0 -0.99654575824487968 0.99654575824487968 0 0.083045479853739987 0 -1 0 
1 1.5 -0.050000000000000003 0.25 0 0 -1 1 0 0 0 -1 0 
1 3.5 -0.050000000000000003 -0.25 0 -0 1 -1 0 0 -0 -1 0 
1 1.5 -0.050000000000000003 -0.25 0.083045479853739987 -0 0.99654575824487968 -0.99654575824487968 0 0.083045479853739987 -0 -1 0 
Triangulations 0

TShapes 79
Ve
1e-07
-3 -0.05 2
0 0

0101101
*
Ve
1e-07
-3 -0.05 -2
0 0

0101101
*
Ed
 1e-07 1 1 0
1  1 0 0 4
0

0101000
-79 0 +78 0 *
Ve
1e-07
-3 0.05 2
0 0

0101101
*
Ed
 1e-07 1 1 0
1  2 0 0 0.1
0

0101000
-76 0 +79 0 *
Ve
1e-07
-3 0.05 -2
0 0

0101101
*
Ed
 1e-07 1 1 0
1  3 0 0 4
0

0101000
-76 0 +74 0 *
Ed
 1e-07 1 1 0
1  4 0 0 0.1
0

0101000
-74 0 +78 0 *
Wi

0101100
-77 0 -75 0 +73 0 +72 0 *
Fa
0  1e-07 1 0

0111000
+71 0 *
Ve
1e-07
8 -0.05 -2
0 0

0101101
*
Ed
 1e-07 1 1 0
1  5 0 0 11
0

0101000
-69 0 +78 0 *
Ve
1e-07
8 -0.05 2
0 0

0101101
*
Ed
 1e-07 1 1 0
1  6 0 0 4
0

0101000
-67 0 +69 0 *
Ed
 1e-07 1 1 0
1  7 0 0 11
0

0101000
-67 0 +79 0 *
Wi

0101100
-68 0 -66 0 +77 0 +65 0 *
Ve
1e-07
0 -0.05 0.125
0 0

0101101
*
Ve
1e-07
1.5 -0.05 0.25
0 0

0101101
*
Ed
 1e-07 1 1 0
1  8 0 0 1.50519932234904
0

0101000
+63 0 -62 0 *
Ve
1e-07
3.5 -0.05 0.25
0 0

0101101
*
Ed
 1e-07 1 1 0
1  9 0 0 2
0

0101000
+62 0 -60 0 *
Ve
1e-07
3.5 -0.05 -0.25
0 0

0101101
*
Ed
 1e-07 1 1 0
1  10 0 0 3.14159265358979
2  1 3 0 0 3.14159265358979
0

0101000
+60 0 -58 0 *
Ve
1e-07
1.5 -0.05 -0.25
0 0

0101101
*
Ed
 1e-07 1 1 0
1  11 0 0 2
0

0101000
+58 0 -56 0 *
Ve
1e-07
0 -0.05 -0.125
0 0

0101101
*
Ed
 1e-07 1 1 0
1  12 0 0 1.50519932234904
0

0101000
+56 0 -54 0 *
Ed
 1e-07 1 1 0
1  13 0 0 3.14159265358979
2  2 4 0 0 3.14159265358979
0

0101000
+54 0 -63 0 *
Wi

0101100
-61 0 -59 0 -57 0 -55 0 -53 0 -52 0 *
Fa
0  1e-07 2 0

0111000
+64 0 +51 0 *
Ve
1e-07
8 0.05 2
0 0

0101101
*
Ed
 1e-07 1 1 0
1  14 0 0 11
0

0101000
-49 0 +76 0 *
Ed
 1e-07 1 1 0
1  15 0 0 0.1
0

0101000
-49 0 +67 0 *
Wi

0101100
-75 0 -48 0 +47 0 +65 0 *
Fa
0  1e-07 5 0

0111000
+46 0 *
Ve
1e-07
8 0.05 -2
0 0

0101101
*
Ed
 1e-07 1 1 0
1  16 0 0 11
0

0101000
-44 0 +74 0 *
Ed
 1e-07 1 1 0
1  17 0 0 4
0

0101000
-49 0 +44 0 *
Wi

0101100
-43 0 -42 0 +73 0 +48 0 *
Ve
1e-07
0 0.05 0.125
0 0

0101101
*
Ve
1e-07
1.5 0.05 0.25
0 0

0101101
*
Ed
 1e-07 1 1 0
1  18 0 0 1.50519932234904
0

0101000
+40 2 -39 2 *
Ve
1e-07
3.5 0.05 0.25
0 0

0101101
*
Ed
 1e-07 1 1 0
1  19 0 0 2
0

0101000
+39 2 -37 2 *
Ve
1e-07
3.5 0.05 -0.25
0 0

0101101
*
Ed
 1e-07 1 1 0
1  20 0 0 3.14159265358979
2  3 3 2 0 3.14159265358979
0

0101000
+37 2 -35 2 *
Ve
1e-07
1.5 0.05 -0.25
0 0

0101101
*
Ed
 1e-07 1 1 0
1  21 0 0 2
0

0101000
+35 2 -33 2 *
Ve
1e-07
0 0.05 -0.125
0 0

0101101
*
Ed
 1e-07 1 1 0
1  22 0 0 1.50519932234904
0

0101000
+33 2 -31 2 *
Ed
 1e-07 1 1 0
1  23 0 0 3.14159265358979
2  4 4 2 0 3.14159265358979
0

0101000
+31 2 -40 2 *
Wi

0101100
-38 1 -36 1 -34 1 -32 1 -30 1 -29 1 *
Fa
0  1e-07 6 0

0111000
+41 0 +28 0 *
Ed
 1e-07 1 1 0
1  24 0 0 0.1
0

0101000
-44 0 +69 0 *
Wi

0101100
-72 0 -43 0 +26 0 +68 0 *
Fa
0  1e-07 7 0

0111000
+25 0 *
Wi

0101100
-66 0 -47 0 +42 0 +26 0 *
Fa
0  1e-07 8 0

0111000
+23 0 *
Ed
 1e-07 1 1 0
1  25 0 0 0.1
2  5 4 0 0 0.1
0

0101000
+63 0 -40 0 *
Ed
 1e-07 1 1 0
1  26 0 0 0.1
0

0101000
+62 0 -39 0 *
Wi

0101100
+21 0 -20 0 -61 0 +38 1 *
Fa
0  1e-07 9 0

0111000
+19 0 *
Ed
 1e-07 1 1 0
1  27 0 0 0.1
2  6 3 0 0 0.1
4 G1 10 0 3 0
0

0101000
+60 0 -37 0 *
Wi

0101100
+20 0 -17 0 -59 0 +36 1 *
Fa
0  1e-07 10 0

0111000
+16 0 *
Ed
 1e-07 1 1 0
1  28 0 0 0.1
2  7 3 0 0 0.1
4 G1 3 0 11 0
0

0101000
+58 0 -35 0 *
Wi

0101100
+17 0 -14 0 -57 0 +34 1 *
Fa
0  1e-07 3 0

0111000
+13 0 *
Ed
 1e-07 1 1 0
1  29 0 0 0.1
0

0101000
+56 0 -33 0 *
Wi

0101100
+14 0 -11 0 -55 0 +32 1 *
Fa
0  1e-07 11 0

0111000
+10 0 *
Ed
 1e-07 1 1 0
1  30 0 0 0.1
2  8 4 0 0 0.1
0

0101000
+54 0 -31 0 *
Wi

0101100
+11 0 -8 0 -53 0 +30 1 *
Fa
0  1e-07 12 0

0111000
+7 0 *
Wi

0101100
+8 0 -21 0 -52 0 +29 1 *
Fa
0  1e-07 4 0

0111000
+5 0 *
Sh

0101100
-70 0 -50 0 +45 0 +27 0 -24 0 +22 0 +18 0 +15 0 +12 0 +9 0 
+6 0 +4 0 *
So

0100000
+3 0 *
Co

1100000
+2 0 *

+1 0 
##EGADS HEADER FILE-REV 1 ##
0
  1  1  12  14  30  20  5
3 10 3
capsIntent
#CFD
3 7 42
capsAIM
#su2AIM;egadsTessAIM;pointwiseAIM;tetgenAIM
2 14 1
capsMeshLength
 7.000000000000e-02
1 5 1
_body
13
1 5 1
_brch
17
    2 0 12
1 5 2
_body
1 1 
1 5 2
_brch
15 1 
1 5 2
_hist
1 13 
1 9 4
__trace__
1 1 13 1 
1 7 3
_faceID
1 1 1 
3 3 5
tag
#inlet
3 7 42
capsAIM
#su2AIM;egadsTessAIM;pointwiseAIM;tetgenAIM
3 9 5
capsGroup
#inlet
3 8 7
capsMesh
#flowbox
3 5 5
_name
#inlet
3 6 5
_color
#green
3 7 5
PW:Name
#inlet
    2 1 12
1 5 2
_body
1 3 
1 5 2
_brch
15 1 
1 5 2
_hist
1 13 
1 9 4
__trace__
1 3 13 2 
1 7 3
_faceID
1 3 1 
1 11 1
__trimmed__
1
3 3 5
tag
#sides
3 7 42
capsAIM
#su2AIM;egadsTessAIM;pointwiseAIM;tetgenAIM
3 9 5
capsGroup
#sides
3 8 7
capsMesh
#flowbox
3 5 5
_name
#sides
3 7 5
PW:Name
#sides
    2 2 12
1 5 2
_body
1 6 
1 5 2
_brch
15 1 
1 5 2
_hist
1 13 
1 9 4
__trace__
1 6 13 3 
1 7 3
_faceID
1 6 1 
3 3 4
tag
#tops
3 7 42
capsAIM
#su2AIM;egadsTessAIM;pointwiseAIM;tetgenAIM
3 9 4
capsGroup
#tops
3 8 7
capsMesh
#flowbox
3 5 4
_name
#tops
3 6 5
_color
#white
3 7 4
PW:Name
#tops
    2 3 12
1 5 2
_body
1 4 
1 5 2
_brch
15 1 
1 5 2
_hist
1 13 
1 9 4
__trace__
1 4 13 4 
1 7 3
_faceID
1 4 1 
1 11 1
__trimmed__
1
3 3 5
tag
#sides
3 7 42
capsAIM
#su2AIM;egadsTessAIM;pointwiseAIM;tetgenAIM
3 9 5
capsGroup
#sides
3 8 7
capsMesh
#flowbox
3 5 5
_name
#sides
3 7 5
PW:Name
#sides
    2 4 12
1 5 2
_body
1 5 
1 5 2
_brch
15 1 
1 5 2
_hist
1 13 
1 9 4
__trace__
1 5 13 5 
1 7 3
_faceID
1 5 1 
3 3 4
tag
#tops
3 7 42
capsAIM
#su2AIM;egadsTessAIM;pointwiseAIM;tetgenAIM
3 9 4
capsGroup
#tops
3 8 7
capsMesh
#flowbox
3 5 4
_name
#tops
3 6 5
_color
#white
3 7 4
PW:Name
#tops
    2 5 12
1 5 2
_body
1 2 
1 5 2
_brch
15 1 
1 5 2
_hist
1 13 
1 9 4
__trace__
1 2 13 6 
1 7 3
_faceID
1 2 1 
3 3 6
tag
#outlet
3 7 42
capsAIM
#su2AIM;egadsTessAIM;pointwiseAIM;tetgenAIM
3 9 6
capsGroup
#outlet
3 8 7
capsMesh
#flowbox
3 5 6
_name
#outlet
3 6 3
_color
#red
3 7 6
PW:Name
#outlet
    2 6 18
1 5 2
_body
10 3 
1 5 2
_brch
16 10 
1 5 2
_hist
10 13 
1 9 4
__trace__
10 1 13 7 
1 7 3
_faceID
10 3 1 
1 11 1
__trimmed__
1
3 3 8
tag
#crossbox
3 9 8
capsGroup
#crossbox
3 10 3
capsIntent
#CFD
3 7 42
capsAIM
#su2AIM;egadsTessAIM;pointwiseAIM;tetgenAIM
3 8 8
capsMesh
#crossbox
3 5 5
_name
#cross
3 6 4
_color
#blue
2 8 3
_tPrarms
 1.000000000000e-02  1.000000000000e-02  2.000000000000e+01 
2 10 1
_makeQuads
 0.000000000000e+00
3 7 8
PW:Name
#crossbox
2 23 1
PW:DomainTRexGrowthRate
 1.200000000000e+00
2 14 1
PW:WallSpacing
 7.000000000000e-05
    2 7 18
1 5 2
_body
10 4 
1 5 2
_brch
16 10 
1 5 2
_hist
10 13 
1 9 4
__trace__
10 2 13 8 
1 7 3
_faceID
10 4 1 
1 11 1
__trimmed__
1
3 3 8
tag
#crossbox
3 9 8
capsGroup
#crossbox
3 10 3
capsIntent
#CFD
3 7 42
capsAIM
#su2AIM;egadsTessAIM;pointwiseAIM;tetgenAIM
3 8 8
capsMesh
#crossbox
3 5 5
_name
#cross
3 6 4
_color
#blue
2 8 3
_tPrarms
 1.000000000000e-02  1.000000000000e-02  2.000000000000e+01 
2 10 1
_makeQuads
 0.000000000000e+00
3 7 8
PW:Name
#crossbox
2 23 1
PW:DomainTRexGrowthRate
 1.200000000000e+00
2 14 1
PW:WallSpacing
 7.000000000000e-05
    2 8 18
1 5 2
_body
10 5 
1 5 2
_brch
16 10 
1 5 2
_hist
10 13 
1 9 4
__trace__
10 3 13 9 
1 7 3
_faceID
10 5 1 
1 11 1
__trimmed__
1
3 3 8
tag
#crossbox
3 9 8
capsGroup
#crossbox
3 10 3
capsIntent
#CFD
3 7 42
capsAIM
#su2AIM;egadsTessAIM;pointwiseAIM;tetgenAIM
3 8 8
capsMesh
#crossbox
3 5 5
_name
#cross
3 6 4
_color
#blue
2 8 3
_tPrarms
 1.000000000000e-02  1.000000000000e-02  2.000000000000e+01 
2 10 1
_makeQuads
 0.000000000000e+00
3 7 8
PW:Name
#crossbox
2 23 1
PW:DomainTRexGrowthRate
 1.200000000000e+00
2 14 1
PW:WallSpacing
 7.000000000000e-05
    2 9 18
1 5 2
_body
10 6 
1 5 2
_brch
16 10 
1 5 2
_hist
10 13 
1 9 4
__trace__
10 4 13 10 
1 7 3
_faceID
10 6 1 
1 11 1
__trimmed__
1
3 3 8
tag
#crossbox
3 9 8
capsGroup
#crossbox
3 10 3
capsIntent
#CFD
3 7 42
capsAIM
#su2AIM;egadsTessAIM;pointwiseAIM;tetgenAIM
3 8 8
capsMesh
#crossbox
3 5 5
_name
#cross
3 6 4
_color
#blue
2 8 3
_tPrarms
 1.000000000000e-02  1.000000000000e-02  2.000000000000e+01 
2 10 1
_makeQuads
 0.000000000000e+00
3 7 8
PW:Name
#crossbox
2 23 1
PW:DomainTRexGrowthRate
 1.200000000000e+00
2 14 1
PW:WallSpacing
 7.000000000000e-05
    2 10 18
1 5 2
_body
10 7 
1 5 2
_brch
16 10 
1 5 2
_hist
10 13 
1 9 4
__trace__
10 5 13 11 
1 7 3
_faceID
10 7 1 
1 11 1
__trimmed__
1
3 3 8
tag
#crossbox
3 9 8
capsGroup
#crossbox
3 10 3
capsIntent
#CFD
3 7 42
capsAIM
#su2AIM;egadsTessAIM;pointwiseAIM;tetgenAIM
3 8 8
capsMesh
#crossbox
3 5 5
_name
#cross
3 6 4
_color
#blue
2 8 3
_tPrarms
 1.000000000000e-02  1.000000000000e-02  2.000000000000e+01 
2 10 1
_makeQuads
 0.000000000000e+00
3 7 8
PW:Name
#crossbox
2 23 1
PW:DomainTRexGrowthRate
 1.200000000000e+00
2 14 1
PW:WallSpacing
 7.000000000000e-05
    2 11 18
1 5 2
_body
10 8 
1 5 2
_brch
16 10 
1 5 2
_hist
10 13 
1 9 4
__trace__
10 6 13 12 
1 7 3
_faceID
10 8 1 
1 11 1
__trimmed__
1
3 3 8
tag
#crossbox
3 9 8
capsGroup
#crossbox
3 10 3
capsIntent
#CFD
3 7 42
capsAIM
#su2AIM;egadsTessAIM;pointwiseAIM;tetgenAIM
3 8 8
capsMesh
#crossbox
3 5 5
_name
#cross
3 6 4
_color
#blue
2 8 3
_tPrarms
 1.000000000000e-02  1.000000000000e-02  2.000000000000e+01 
2 10 1
_makeQuads
 0.000000000000e+00
3 7 8
PW:Name
#crossbox
2 23 1
PW:DomainTRexGrowthRate
 1.200000000000e+00
2 14 1
PW:WallSpacing
 7.000000000000e-05
    4 0 4
1 9 4
__trace__
1 1 13 1 
1 5 2
_body
1 10003 
1 7 5
_edgeID
1 1 1 3 1 
1 6 1
_nface
2
    4 1 4
1 9 4
__trace__
1 2 13 2 
1 5 2
_body
1 10006 
1 7 5
_edgeID
1 1 1 6 1 
1 6 1
_nface
2
    4 2 4
1 9 4
__trace__
1 3 13 3 
1 5 2
_body
1 40001 
1 7 5
_edgeID
1 1 1 4 1 
1 6 1
_nface
2
    4 3 4
1 9 4
__trace__
1 4 13 4 
1 5 2
_body
1 50001 
1 7 5
_edgeID
1 1 1 5 1 
1 6 1
_nface
2
    4 4 4
1 9 4
__trace__
1 9 13 5 
1 5 2
_body
1 30005 
1 7 5
_edgeID
1 3 1 5 1 
1 6 1
_nface
2
    4 5 4
1 9 4
__trace__
1 5 13 6 
1 5 2
_body
1 30002 
1 7 5
_edgeID
1 2 1 3 1 
1 6 1
_nface
2
    4 6 4
1 9 4
__trace__
1 10 13 7 
1 5 2
_body
1 60003 
1 7 5
_edgeID
1 3 1 6 1 
1 6 1
_nface
2
    4 7 4
1 5 2
_body
13 0 
1 7 5
_edgeID
1 3 10 3 1 
1 6 1
_nface
2
1 9 2
__trace__
13 8 
    4 8 4
1 5 2
_body
13 0 
1 7 5
_edgeID
1 3 10 4 1 
1 6 1
_nface
2
1 9 2
__trace__
13 9 
    4 9 4
1 5 2
_body
13 0 
1 7 5
_edgeID
1 3 10 5 1 
1 6 1
_nface
2
1 9 2
__trace__
13 10 
    4 10 4
1 5 2
_body
13 0 
1 7 5
_edgeID
1 3 10 6 1 
1 6 1
_nface
2
1 9 2
__trace__
13 11 
    4 11 4
1 5 2
_body
13 0 
1 7 5
_edgeID
1 3 10 7 1 
1 6 1
_nface
2
1 9 2
__trace__
13 12 
    4 12 4
1 5 2
_body
13 0 
1 7 5
_edgeID
1 3 10 8 1 
1 6 1
_nface
2
1 9 2
__trace__
13 13 
    4 13 4
1 9 4
__trace__
1 12 13 14 
1 5 2
_body
1 40006 
1 7 5
_edgeID
1 4 1 6 1 
1 6 1
_nface
2
    4 14 4
1 9 4
__trace__
1 6 13 15 
1 5 2
_body
1 60002 
1 7 5
_edgeID
1 2 1 6 1 
1 6 1
_nface
2
    4 15 4
1 9 4
__trace__
1 11 13 16 
1 5 2
_body
1 50004 
1 7 5
_edgeID
1 4 1 5 1 
1 6 1
_nface
2
    4 16 4
1 9 4
__trace__
1 7 13 17 
1 5 2
_body
1 20004 
1 7 5
_edgeID
1 2 1 4 1 
1 6 1
_nface
2
    4 17 4
1 5 2
_body
13 0 
1 7 5
_edgeID
1 4 10 3 1 
1 6 1
_nface
2
1 9 2
__trace__
13 18 
    4 18 4
1 5 2
_body
13 0 
1 7 5
_edgeID
1 4 10 4 1 
1 6 1
_nface
2
1 9 2
__trace__
13 19 
    4 19 4
1 5 2
_body
13 0 
1 7 5
_edgeID
1 4 10 5 1 
1 6 1
_nface
2
1 9 2
__trace__
13 20 
    4 20 4
1 5 2
_body
13 0 
1 7 5
_edgeID
1 4 10 6 1 
1 6 1
_nface
2
1 9 2
__trace__
13 21 
    4 21 4
1 5 2
_body
13 0 
1 7 5
_edgeID
1 4 10 7 1 
1 6 1
_nface
2
1 9 2
__trace__
13 22 
    4 22 4
1 5 2
_body
13 0 
1 7 5
_edgeID
1 4 10 8 1 
1 6 1
_nface
2
1 9 2
__trace__
13 23 
    4 23 4
1 9 4
__trace__
1 8 13 24 
1 5 2
_body
1 20005 
1 7 5
_edgeID
1 2 1 5 1 
1 6 1
_nface
2
    4 24 4
1 5 2
_body
10 30008 
1 7 5
_edgeID
10 3 10 8 1 
1 9 4
__trace__
10 1 13 25 
1 6 1
_nface
2
    4 25 4
1 5 2
_body
10 40003 
1 7 5
_edgeID
10 3 10 4 1 
1 9 4
__trace__
10 2 13 26 
1 6 1
_nface
2
    4 26 4
1 5 2
_body
10 50004 
1 7 5
_edgeID
10 4 10 5 1 
1 9 4
__trace__
10 5 13 27 
1 6 1
_nface
2
    4 27 4
1 5 2
_body
10 60005 
1 7 5
_edgeID
10 5 10 6 1 
1 9 4
__trace__
10 8 13 28 
1 6 1
_nface
2
    4 28 4
1 5 2
_body
10 70006 
1 7 5
_edgeID
10 6 10 7 1 
1 9 4
__trace__
10 11 13 29 
1 6 1
_nface
2
    4 29 4
1 5 2
_body
10 80007 
1 7 5
_edgeID
10 7 10 8 1 
1 9 4
__trace__
10 14 13 30 
1 6 1
_nface
2
    5 0 3
1 9 4
__trace__
1 1 13 1 
1 7 1
_nodeID
1
1 6 1
_nedge
3
    5 1 3
1 9 4
__trace__
1 2 13 2 
1 7 1
_nodeID
2
1 6 1
_nedge
3
    5 2 3
1 9 4
__trace__
1 3 13 3 
1 7 1
_nodeID
3
1 6 1
_nedge
3
    5 3 3
1 9 4
__trace__
1 4 13 4 
1 7 1
_nodeID
4
1 6 1
_nedge
3
    5 4 3
1 9 4
__trace__
1 6 13 5 
1 7 1
_nodeID
5
1 6 1
_nedge
3
    5 5 3
1 9 4
__trace__
1 5 13 6 
1 7 1
_nodeID
6
1 6 1
_nedge
3
    5 6 3
1 9 6
__trace__
9 1 10 1 13 7 
1 7 1
_nodeID
7
1 6 1
_nedge
3
    5 7 3
1 9 6
__trace__
9 2 10 3 13 8 
1 7 1
_nodeID
8
1 6 1
_nedge
3
    5 8 3
1 9 6
__trace__
9 3 10 5 13 9 
1 7 1
_nodeID
9
1 6 1
_nedge
3
    5 9 3
1 9 6
__trace__
9 4 10 7 13 10 
1 7 1
_nodeID
10
1 6 1
_nedge
3
    5 10 3
1 9 6
__trace__
9 5 10 9 13 11 
1 7 1
_nodeID
11
1 6 1
_nedge
3
    5 11 3
1 9 6
__trace__
9 6 10 11 13 12 
1 7 1
_nodeID
12
1 6 1
_nedge
3
    5 12 3
1 9 4
__trace__
1 7 13 13 
1 7 1
_nodeID
13
1 6 1
_nedge
3
    5 13 3
1 9 4
__trace__
1 8 13 14 
1 7 1
_nodeID
14
1 6 1
_nedge
3
    5 14 3
1 9 4
__trace__
10 2 13 15 
1 7 1
_nodeID
15
1 6 1
_nedge
3
    5 15 3
1 9 4
__trace__
10 4 13 16 
1 7 1
_nodeID
16
1 6 1
_nedge
3
    5 16 3
1 9 4
__trace__
10 6 13 17 
1 7 1
_nodeID
17
1 6 1
_nedge
3
    5 17 3
1 9 4
__trace__
10 8 13 18 
1 7 1
_nodeID
18
1 6 1
_nedge
3
    5 18 3
1 9 4
__trace__
10 10 13 19 
1 7 1
_nodeID
19
1 6 1
_nedge
3
    5 19 3
1 9 4
__trace__
10 12 13 20 
1 7 1
_nodeID
20
1 6 1
_nedge
3
    0 0 0
